<mxfile host="Electron" modified="2024-02-12T07:23:36.055Z" agent="Mozilla/5.0 (Windows NT 10.0; Win64; x64) AppleWebKit/537.36 (KHTML, like Gecko) draw.io/22.1.11 Chrome/114.0.5735.289 Electron/25.9.8 Safari/537.36" etag="33O7UYIxbI1zVeKZ2JER" version="22.1.11" type="device">
  <diagram name="Страница — 1" id="0nC2qG1_k8tQzXlrlOuJ">
    <mxGraphModel dx="1978" dy="673" grid="1" gridSize="10" guides="1" tooltips="1" connect="1" arrows="1" fold="1" page="1" pageScale="1" pageWidth="827" pageHeight="1169" math="0" shadow="0">
      <root>
        <mxCell id="0" />
        <mxCell id="1" parent="0" />
        <mxCell id="o5BiTAXNloYJyOkgfLJO-3" value="" style="edgeStyle=orthogonalEdgeStyle;rounded=0;orthogonalLoop=1;jettySize=auto;html=1;" edge="1" parent="1" source="o5BiTAXNloYJyOkgfLJO-1" target="o5BiTAXNloYJyOkgfLJO-2">
          <mxGeometry relative="1" as="geometry" />
        </mxCell>
        <mxCell id="o5BiTAXNloYJyOkgfLJO-1" value="Начало" style="ellipse;whiteSpace=wrap;html=1;" vertex="1" parent="1">
          <mxGeometry x="350" y="70" width="110" height="60" as="geometry" />
        </mxCell>
        <mxCell id="o5BiTAXNloYJyOkgfLJO-25" value="" style="edgeStyle=orthogonalEdgeStyle;rounded=0;orthogonalLoop=1;jettySize=auto;html=1;" edge="1" parent="1" source="o5BiTAXNloYJyOkgfLJO-2" target="o5BiTAXNloYJyOkgfLJO-24">
          <mxGeometry relative="1" as="geometry" />
        </mxCell>
        <mxCell id="o5BiTAXNloYJyOkgfLJO-2" value="cout &amp;lt;&amp;lt; &quot;Введите количество строк и столбцов (не более 20): &quot;;" style="shape=parallelogram;perimeter=parallelogramPerimeter;whiteSpace=wrap;html=1;fixedSize=1;" vertex="1" parent="1">
          <mxGeometry x="290" y="260" width="230" height="60" as="geometry" />
        </mxCell>
        <mxCell id="o5BiTAXNloYJyOkgfLJO-4" value="" style="endArrow=none;dashed=1;html=1;dashPattern=1 3;strokeWidth=2;rounded=0;" edge="1" parent="1">
          <mxGeometry width="50" height="50" relative="1" as="geometry">
            <mxPoint x="410" y="190" as="sourcePoint" />
            <mxPoint x="500" y="190" as="targetPoint" />
          </mxGeometry>
        </mxCell>
        <mxCell id="o5BiTAXNloYJyOkgfLJO-5" value="&lt;div&gt;&lt;div&gt;#include &amp;lt;iostream&amp;gt;&lt;/div&gt;&lt;div&gt;using namespace std;&lt;/div&gt;&lt;/div&gt;&lt;div&gt;&lt;br&gt;&lt;/div&gt;&lt;div&gt;int main() {&lt;/div&gt;&lt;div&gt;&amp;nbsp; &amp;nbsp; setlocale(LC_ALL, &quot;Rus&quot;);&lt;/div&gt;&lt;div&gt;&amp;nbsp; &amp;nbsp; int n, m;&lt;/div&gt;" style="text;html=1;align=left;verticalAlign=middle;resizable=0;points=[];autosize=1;strokeColor=none;fillColor=none;" vertex="1" parent="1">
          <mxGeometry x="510" y="140" width="180" height="100" as="geometry" />
        </mxCell>
        <mxCell id="o5BiTAXNloYJyOkgfLJO-6" value="" style="shape=partialRectangle;whiteSpace=wrap;html=1;bottom=1;right=1;left=1;top=0;fillColor=none;routingCenterX=-0.5;direction=south;" vertex="1" parent="1">
          <mxGeometry x="500" y="130" width="60" height="120" as="geometry" />
        </mxCell>
        <mxCell id="o5BiTAXNloYJyOkgfLJO-8" value="" style="shape=partialRectangle;whiteSpace=wrap;html=1;bottom=1;right=1;left=1;top=0;fillColor=none;routingCenterX=-0.5;direction=north;" vertex="1" parent="1">
          <mxGeometry x="630" y="130" width="60" height="120" as="geometry" />
        </mxCell>
        <mxCell id="o5BiTAXNloYJyOkgfLJO-11" value="" style="edgeStyle=orthogonalEdgeStyle;rounded=0;orthogonalLoop=1;jettySize=auto;html=1;" edge="1" parent="1" source="o5BiTAXNloYJyOkgfLJO-9" target="o5BiTAXNloYJyOkgfLJO-10">
          <mxGeometry relative="1" as="geometry" />
        </mxCell>
        <mxCell id="o5BiTAXNloYJyOkgfLJO-9" value="int sumSubarray(int arr[20][20], int n, int m)" style="shape=process;whiteSpace=wrap;html=1;backgroundOutline=1;" vertex="1" parent="1">
          <mxGeometry x="-80" y="100" width="210" height="60" as="geometry" />
        </mxCell>
        <mxCell id="o5BiTAXNloYJyOkgfLJO-13" value="" style="edgeStyle=orthogonalEdgeStyle;rounded=0;orthogonalLoop=1;jettySize=auto;html=1;" edge="1" parent="1" source="o5BiTAXNloYJyOkgfLJO-10" target="o5BiTAXNloYJyOkgfLJO-12">
          <mxGeometry relative="1" as="geometry" />
        </mxCell>
        <mxCell id="o5BiTAXNloYJyOkgfLJO-10" value="int sum = 0;" style="whiteSpace=wrap;html=1;" vertex="1" parent="1">
          <mxGeometry x="-17.5" y="185" width="85" height="30" as="geometry" />
        </mxCell>
        <mxCell id="o5BiTAXNloYJyOkgfLJO-15" value="" style="edgeStyle=orthogonalEdgeStyle;rounded=0;orthogonalLoop=1;jettySize=auto;html=1;" edge="1" parent="1" source="o5BiTAXNloYJyOkgfLJO-12" target="o5BiTAXNloYJyOkgfLJO-14">
          <mxGeometry relative="1" as="geometry" />
        </mxCell>
        <mxCell id="o5BiTAXNloYJyOkgfLJO-23" value="" style="edgeStyle=orthogonalEdgeStyle;rounded=0;orthogonalLoop=1;jettySize=auto;html=1;" edge="1" parent="1" source="o5BiTAXNloYJyOkgfLJO-12" target="o5BiTAXNloYJyOkgfLJO-22">
          <mxGeometry relative="1" as="geometry" />
        </mxCell>
        <mxCell id="o5BiTAXNloYJyOkgfLJO-12" value="for (int i = n; i &amp;lt; n + 3; ++i) {" style="shape=hexagon;perimeter=hexagonPerimeter2;whiteSpace=wrap;html=1;fixedSize=1;" vertex="1" parent="1">
          <mxGeometry x="-56.25" y="240" width="162.5" height="50" as="geometry" />
        </mxCell>
        <mxCell id="o5BiTAXNloYJyOkgfLJO-17" value="" style="edgeStyle=orthogonalEdgeStyle;rounded=0;orthogonalLoop=1;jettySize=auto;html=1;" edge="1" parent="1" source="o5BiTAXNloYJyOkgfLJO-14" target="o5BiTAXNloYJyOkgfLJO-16">
          <mxGeometry relative="1" as="geometry" />
        </mxCell>
        <mxCell id="o5BiTAXNloYJyOkgfLJO-21" style="edgeStyle=orthogonalEdgeStyle;rounded=0;orthogonalLoop=1;jettySize=auto;html=1;entryX=0;entryY=0.5;entryDx=0;entryDy=0;" edge="1" parent="1" target="o5BiTAXNloYJyOkgfLJO-12">
          <mxGeometry relative="1" as="geometry">
            <mxPoint x="-62" y="260" as="targetPoint" />
            <mxPoint x="99.5" y="335" as="sourcePoint" />
            <Array as="points">
              <mxPoint x="151" y="335" />
              <mxPoint x="151" y="525" />
              <mxPoint x="-110" y="525" />
              <mxPoint x="-110" y="260" />
              <mxPoint x="-56" y="260" />
            </Array>
          </mxGeometry>
        </mxCell>
        <mxCell id="o5BiTAXNloYJyOkgfLJO-14" value="for (int j = m; j &amp;lt; m + 3; ++j)" style="shape=hexagon;perimeter=hexagonPerimeter2;whiteSpace=wrap;html=1;fixedSize=1;" vertex="1" parent="1">
          <mxGeometry x="-62.5" y="310" width="162.5" height="50" as="geometry" />
        </mxCell>
        <mxCell id="o5BiTAXNloYJyOkgfLJO-19" style="edgeStyle=orthogonalEdgeStyle;rounded=0;orthogonalLoop=1;jettySize=auto;html=1;entryX=0;entryY=0.5;entryDx=0;entryDy=0;" edge="1" parent="1" source="o5BiTAXNloYJyOkgfLJO-16" target="o5BiTAXNloYJyOkgfLJO-14">
          <mxGeometry relative="1" as="geometry">
            <Array as="points">
              <mxPoint x="20" y="460" />
              <mxPoint x="-82" y="460" />
              <mxPoint x="-82" y="335" />
            </Array>
          </mxGeometry>
        </mxCell>
        <mxCell id="o5BiTAXNloYJyOkgfLJO-16" value="sum += arr[i][j];" style="whiteSpace=wrap;html=1;" vertex="1" parent="1">
          <mxGeometry x="-36.870000000000005" y="400" width="111.25" height="30" as="geometry" />
        </mxCell>
        <mxCell id="o5BiTAXNloYJyOkgfLJO-22" value="return sum;" style="ellipse;whiteSpace=wrap;html=1;" vertex="1" parent="1">
          <mxGeometry x="130" y="237.5" width="82.5" height="55" as="geometry" />
        </mxCell>
        <mxCell id="o5BiTAXNloYJyOkgfLJO-27" value="" style="edgeStyle=orthogonalEdgeStyle;rounded=0;orthogonalLoop=1;jettySize=auto;html=1;" edge="1" parent="1" source="o5BiTAXNloYJyOkgfLJO-24" target="o5BiTAXNloYJyOkgfLJO-26">
          <mxGeometry relative="1" as="geometry" />
        </mxCell>
        <mxCell id="o5BiTAXNloYJyOkgfLJO-24" value="cin &amp;gt;&amp;gt; n &amp;gt;&amp;gt; m;" style="shape=parallelogram;perimeter=parallelogramPerimeter;whiteSpace=wrap;html=1;fixedSize=1;" vertex="1" parent="1">
          <mxGeometry x="350" y="350" width="110" height="30" as="geometry" />
        </mxCell>
        <mxCell id="o5BiTAXNloYJyOkgfLJO-29" value="" style="edgeStyle=orthogonalEdgeStyle;rounded=0;orthogonalLoop=1;jettySize=auto;html=1;" edge="1" parent="1" source="o5BiTAXNloYJyOkgfLJO-26" target="o5BiTAXNloYJyOkgfLJO-28">
          <mxGeometry relative="1" as="geometry" />
        </mxCell>
        <mxCell id="o5BiTAXNloYJyOkgfLJO-26" value="if (n &amp;lt; 3 || m &amp;lt; 3 || n &amp;gt; 20 || m &amp;gt; 20) {" style="rhombus;whiteSpace=wrap;html=1;" vertex="1" parent="1">
          <mxGeometry x="292.5" y="400" width="225" height="80" as="geometry" />
        </mxCell>
        <mxCell id="o5BiTAXNloYJyOkgfLJO-31" value="" style="edgeStyle=orthogonalEdgeStyle;rounded=0;orthogonalLoop=1;jettySize=auto;html=1;" edge="1" parent="1" source="o5BiTAXNloYJyOkgfLJO-28" target="o5BiTAXNloYJyOkgfLJO-30">
          <mxGeometry relative="1" as="geometry" />
        </mxCell>
        <mxCell id="o5BiTAXNloYJyOkgfLJO-28" value="cout &amp;lt;&amp;lt; &quot;Некорректные размеры массива!&quot;;" style="shape=parallelogram;perimeter=parallelogramPerimeter;whiteSpace=wrap;html=1;fixedSize=1;" vertex="1" parent="1">
          <mxGeometry x="322.5" y="500" width="165" height="60" as="geometry" />
        </mxCell>
        <mxCell id="o5BiTAXNloYJyOkgfLJO-33" value="" style="edgeStyle=orthogonalEdgeStyle;rounded=0;orthogonalLoop=1;jettySize=auto;html=1;" edge="1" parent="1" source="o5BiTAXNloYJyOkgfLJO-30" target="o5BiTAXNloYJyOkgfLJO-32">
          <mxGeometry relative="1" as="geometry" />
        </mxCell>
        <mxCell id="o5BiTAXNloYJyOkgfLJO-30" value="return 0;" style="ellipse;whiteSpace=wrap;html=1;" vertex="1" parent="1">
          <mxGeometry x="362.5" y="590" width="85" height="30" as="geometry" />
        </mxCell>
        <mxCell id="o5BiTAXNloYJyOkgfLJO-35" value="" style="edgeStyle=orthogonalEdgeStyle;rounded=0;orthogonalLoop=1;jettySize=auto;html=1;" edge="1" parent="1" source="o5BiTAXNloYJyOkgfLJO-32" target="o5BiTAXNloYJyOkgfLJO-34">
          <mxGeometry relative="1" as="geometry" />
        </mxCell>
        <mxCell id="o5BiTAXNloYJyOkgfLJO-32" value="int arr[20][20];" style="whiteSpace=wrap;html=1;" vertex="1" parent="1">
          <mxGeometry x="356.25" y="650" width="97.5" height="25" as="geometry" />
        </mxCell>
        <mxCell id="o5BiTAXNloYJyOkgfLJO-39" value="" style="edgeStyle=orthogonalEdgeStyle;rounded=0;orthogonalLoop=1;jettySize=auto;html=1;" edge="1" parent="1" source="o5BiTAXNloYJyOkgfLJO-34" target="o5BiTAXNloYJyOkgfLJO-38">
          <mxGeometry relative="1" as="geometry" />
        </mxCell>
        <mxCell id="o5BiTAXNloYJyOkgfLJO-45" style="edgeStyle=orthogonalEdgeStyle;rounded=0;orthogonalLoop=1;jettySize=auto;html=1;" edge="1" parent="1" source="o5BiTAXNloYJyOkgfLJO-34" target="o5BiTAXNloYJyOkgfLJO-48">
          <mxGeometry relative="1" as="geometry">
            <mxPoint x="405.0588235294117" y="960" as="targetPoint" />
            <Array as="points">
              <mxPoint x="550" y="716" />
              <mxPoint x="550" y="940" />
              <mxPoint x="405" y="940" />
            </Array>
          </mxGeometry>
        </mxCell>
        <mxCell id="o5BiTAXNloYJyOkgfLJO-34" value="for (int i = 0; i &amp;lt; n; ++i) {" style="shape=hexagon;perimeter=hexagonPerimeter2;whiteSpace=wrap;html=1;fixedSize=1;" vertex="1" parent="1">
          <mxGeometry x="322.5" y="700" width="165" height="32.5" as="geometry" />
        </mxCell>
        <mxCell id="o5BiTAXNloYJyOkgfLJO-41" value="" style="edgeStyle=orthogonalEdgeStyle;rounded=0;orthogonalLoop=1;jettySize=auto;html=1;" edge="1" parent="1" source="o5BiTAXNloYJyOkgfLJO-38" target="o5BiTAXNloYJyOkgfLJO-40">
          <mxGeometry relative="1" as="geometry" />
        </mxCell>
        <mxCell id="o5BiTAXNloYJyOkgfLJO-44" style="edgeStyle=orthogonalEdgeStyle;rounded=0;orthogonalLoop=1;jettySize=auto;html=1;entryX=0;entryY=0.5;entryDx=0;entryDy=0;" edge="1" parent="1" source="o5BiTAXNloYJyOkgfLJO-38" target="o5BiTAXNloYJyOkgfLJO-34">
          <mxGeometry relative="1" as="geometry">
            <mxPoint x="510" y="900" as="targetPoint" />
            <Array as="points">
              <mxPoint x="510" y="766" />
              <mxPoint x="510" y="920" />
              <mxPoint x="270" y="920" />
              <mxPoint x="270" y="716" />
            </Array>
          </mxGeometry>
        </mxCell>
        <mxCell id="o5BiTAXNloYJyOkgfLJO-38" value="for (int j = 0; j &amp;lt; m; ++j) {" style="shape=hexagon;perimeter=hexagonPerimeter2;whiteSpace=wrap;html=1;fixedSize=1;" vertex="1" parent="1">
          <mxGeometry x="322.5" y="750" width="165" height="32.5" as="geometry" />
        </mxCell>
        <mxCell id="o5BiTAXNloYJyOkgfLJO-42" style="edgeStyle=orthogonalEdgeStyle;rounded=0;orthogonalLoop=1;jettySize=auto;html=1;entryX=0;entryY=0.5;entryDx=0;entryDy=0;" edge="1" parent="1" source="o5BiTAXNloYJyOkgfLJO-40" target="o5BiTAXNloYJyOkgfLJO-38">
          <mxGeometry relative="1" as="geometry">
            <Array as="points">
              <mxPoint x="405" y="870" />
              <mxPoint x="303" y="870" />
              <mxPoint x="303" y="766" />
            </Array>
          </mxGeometry>
        </mxCell>
        <mxCell id="o5BiTAXNloYJyOkgfLJO-40" value="arr[i][j] = rand()%100;" style="whiteSpace=wrap;html=1;" vertex="1" parent="1">
          <mxGeometry x="342.5" y="810" width="125" height="31.25" as="geometry" />
        </mxCell>
        <mxCell id="o5BiTAXNloYJyOkgfLJO-50" value="" style="edgeStyle=orthogonalEdgeStyle;rounded=0;orthogonalLoop=1;jettySize=auto;html=1;" edge="1" parent="1" source="o5BiTAXNloYJyOkgfLJO-48" target="o5BiTAXNloYJyOkgfLJO-49">
          <mxGeometry relative="1" as="geometry" />
        </mxCell>
        <mxCell id="o5BiTAXNloYJyOkgfLJO-48" value="int maxSum = sumSubarray(arr, 0, 0);" style="rounded=0;whiteSpace=wrap;html=1;" vertex="1" parent="1">
          <mxGeometry x="330" y="960" width="150" height="40" as="geometry" />
        </mxCell>
        <mxCell id="o5BiTAXNloYJyOkgfLJO-52" value="" style="edgeStyle=orthogonalEdgeStyle;rounded=0;orthogonalLoop=1;jettySize=auto;html=1;" edge="1" parent="1" source="o5BiTAXNloYJyOkgfLJO-49" target="o5BiTAXNloYJyOkgfLJO-51">
          <mxGeometry relative="1" as="geometry" />
        </mxCell>
        <mxCell id="o5BiTAXNloYJyOkgfLJO-49" value="int maxRow = 0, maxCol = 0;" style="rounded=0;whiteSpace=wrap;html=1;" vertex="1" parent="1">
          <mxGeometry x="320" y="1030" width="170" height="40" as="geometry" />
        </mxCell>
        <mxCell id="o5BiTAXNloYJyOkgfLJO-54" value="" style="edgeStyle=orthogonalEdgeStyle;rounded=0;orthogonalLoop=1;jettySize=auto;html=1;" edge="1" parent="1" source="o5BiTAXNloYJyOkgfLJO-51" target="o5BiTAXNloYJyOkgfLJO-53">
          <mxGeometry relative="1" as="geometry" />
        </mxCell>
        <mxCell id="o5BiTAXNloYJyOkgfLJO-75" style="edgeStyle=orthogonalEdgeStyle;rounded=0;orthogonalLoop=1;jettySize=auto;html=1;" edge="1" parent="1" source="o5BiTAXNloYJyOkgfLJO-51" target="o5BiTAXNloYJyOkgfLJO-77">
          <mxGeometry relative="1" as="geometry">
            <mxPoint x="360" y="1960" as="targetPoint" />
            <Array as="points">
              <mxPoint x="680" y="1130" />
              <mxPoint x="680" y="1940" />
              <mxPoint x="360" y="1940" />
            </Array>
          </mxGeometry>
        </mxCell>
        <mxCell id="o5BiTAXNloYJyOkgfLJO-51" value="for (int i = 0; i &amp;lt;= n - 3; ++i) {" style="shape=hexagon;perimeter=hexagonPerimeter2;whiteSpace=wrap;html=1;fixedSize=1;rounded=0;" vertex="1" parent="1">
          <mxGeometry x="322.5" y="1100" width="165" height="60" as="geometry" />
        </mxCell>
        <mxCell id="o5BiTAXNloYJyOkgfLJO-56" value="" style="edgeStyle=orthogonalEdgeStyle;rounded=0;orthogonalLoop=1;jettySize=auto;html=1;" edge="1" parent="1" source="o5BiTAXNloYJyOkgfLJO-53" target="o5BiTAXNloYJyOkgfLJO-55">
          <mxGeometry relative="1" as="geometry" />
        </mxCell>
        <mxCell id="o5BiTAXNloYJyOkgfLJO-74" style="edgeStyle=orthogonalEdgeStyle;rounded=0;orthogonalLoop=1;jettySize=auto;html=1;exitX=1;exitY=0.5;exitDx=0;exitDy=0;entryX=0;entryY=0.5;entryDx=0;entryDy=0;" edge="1" parent="1" source="o5BiTAXNloYJyOkgfLJO-53" target="o5BiTAXNloYJyOkgfLJO-51">
          <mxGeometry relative="1" as="geometry">
            <Array as="points">
              <mxPoint x="620" y="1220" />
              <mxPoint x="620" y="1910" />
              <mxPoint x="120" y="1910" />
              <mxPoint x="120" y="1130" />
            </Array>
          </mxGeometry>
        </mxCell>
        <mxCell id="o5BiTAXNloYJyOkgfLJO-53" value="for (int j = 0; j &amp;lt;= m - 3; ++j) {" style="shape=hexagon;perimeter=hexagonPerimeter2;whiteSpace=wrap;html=1;fixedSize=1;rounded=0;" vertex="1" parent="1">
          <mxGeometry x="322.5" y="1190" width="165" height="60" as="geometry" />
        </mxCell>
        <mxCell id="o5BiTAXNloYJyOkgfLJO-58" value="" style="edgeStyle=orthogonalEdgeStyle;rounded=0;orthogonalLoop=1;jettySize=auto;html=1;" edge="1" parent="1" source="o5BiTAXNloYJyOkgfLJO-55" target="o5BiTAXNloYJyOkgfLJO-57">
          <mxGeometry relative="1" as="geometry" />
        </mxCell>
        <mxCell id="o5BiTAXNloYJyOkgfLJO-55" value="int currentSum = sumSubarray(arr, i, j);" style="whiteSpace=wrap;html=1;rounded=0;" vertex="1" parent="1">
          <mxGeometry x="345" y="1280" width="120" height="60" as="geometry" />
        </mxCell>
        <mxCell id="o5BiTAXNloYJyOkgfLJO-60" value="" style="edgeStyle=orthogonalEdgeStyle;rounded=0;orthogonalLoop=1;jettySize=auto;html=1;" edge="1" parent="1" source="o5BiTAXNloYJyOkgfLJO-57" target="o5BiTAXNloYJyOkgfLJO-59">
          <mxGeometry relative="1" as="geometry" />
        </mxCell>
        <mxCell id="o5BiTAXNloYJyOkgfLJO-67" style="edgeStyle=orthogonalEdgeStyle;rounded=0;orthogonalLoop=1;jettySize=auto;html=1;" edge="1" parent="1" source="o5BiTAXNloYJyOkgfLJO-57">
          <mxGeometry relative="1" as="geometry">
            <mxPoint x="400" y="1749.9999999999995" as="targetPoint" />
            <Array as="points">
              <mxPoint x="560" y="1430" />
              <mxPoint x="560" y="1750" />
            </Array>
          </mxGeometry>
        </mxCell>
        <mxCell id="o5BiTAXNloYJyOkgfLJO-57" value="if (currentSum &amp;gt; maxSum) {" style="rhombus;whiteSpace=wrap;html=1;rounded=0;" vertex="1" parent="1">
          <mxGeometry x="312.5" y="1390" width="185" height="80" as="geometry" />
        </mxCell>
        <mxCell id="o5BiTAXNloYJyOkgfLJO-62" value="" style="edgeStyle=orthogonalEdgeStyle;rounded=0;orthogonalLoop=1;jettySize=auto;html=1;" edge="1" parent="1" source="o5BiTAXNloYJyOkgfLJO-59" target="o5BiTAXNloYJyOkgfLJO-61">
          <mxGeometry relative="1" as="geometry" />
        </mxCell>
        <mxCell id="o5BiTAXNloYJyOkgfLJO-59" value="maxSum = currentSum;" style="whiteSpace=wrap;html=1;rounded=0;" vertex="1" parent="1">
          <mxGeometry x="200" y="1480" width="100" height="40" as="geometry" />
        </mxCell>
        <mxCell id="o5BiTAXNloYJyOkgfLJO-65" value="" style="edgeStyle=orthogonalEdgeStyle;rounded=0;orthogonalLoop=1;jettySize=auto;html=1;" edge="1" parent="1" source="o5BiTAXNloYJyOkgfLJO-61" target="o5BiTAXNloYJyOkgfLJO-64">
          <mxGeometry relative="1" as="geometry" />
        </mxCell>
        <mxCell id="o5BiTAXNloYJyOkgfLJO-61" value="maxRow = i;" style="whiteSpace=wrap;html=1;rounded=0;" vertex="1" parent="1">
          <mxGeometry x="200" y="1550" width="100" height="40" as="geometry" />
        </mxCell>
        <mxCell id="o5BiTAXNloYJyOkgfLJO-66" style="edgeStyle=orthogonalEdgeStyle;rounded=0;orthogonalLoop=1;jettySize=auto;html=1;" edge="1" parent="1" source="o5BiTAXNloYJyOkgfLJO-64">
          <mxGeometry relative="1" as="geometry">
            <mxPoint x="400" y="1750" as="targetPoint" />
            <Array as="points">
              <mxPoint x="250" y="1750" />
              <mxPoint x="250" y="1750" />
            </Array>
          </mxGeometry>
        </mxCell>
        <mxCell id="o5BiTAXNloYJyOkgfLJO-64" value="maxCol = j;" style="whiteSpace=wrap;html=1;rounded=0;" vertex="1" parent="1">
          <mxGeometry x="200" y="1620" width="100" height="40" as="geometry" />
        </mxCell>
        <mxCell id="o5BiTAXNloYJyOkgfLJO-70" value="" style="endArrow=none;html=1;rounded=0;" edge="1" parent="1">
          <mxGeometry width="50" height="50" relative="1" as="geometry">
            <mxPoint x="400" y="1810" as="sourcePoint" />
            <mxPoint x="400" y="1750" as="targetPoint" />
          </mxGeometry>
        </mxCell>
        <mxCell id="o5BiTAXNloYJyOkgfLJO-71" value="" style="endArrow=none;html=1;rounded=0;" edge="1" parent="1">
          <mxGeometry width="50" height="50" relative="1" as="geometry">
            <mxPoint x="160" y="1810" as="sourcePoint" />
            <mxPoint x="400" y="1810" as="targetPoint" />
          </mxGeometry>
        </mxCell>
        <mxCell id="o5BiTAXNloYJyOkgfLJO-72" value="" style="endArrow=none;html=1;rounded=0;" edge="1" parent="1">
          <mxGeometry width="50" height="50" relative="1" as="geometry">
            <mxPoint x="160" y="1810" as="sourcePoint" />
            <mxPoint x="160" y="1220" as="targetPoint" />
          </mxGeometry>
        </mxCell>
        <mxCell id="o5BiTAXNloYJyOkgfLJO-73" value="" style="endArrow=classic;html=1;rounded=0;" edge="1" parent="1">
          <mxGeometry width="50" height="50" relative="1" as="geometry">
            <mxPoint x="160" y="1220" as="sourcePoint" />
            <mxPoint x="320" y="1220" as="targetPoint" />
          </mxGeometry>
        </mxCell>
        <mxCell id="o5BiTAXNloYJyOkgfLJO-79" value="" style="edgeStyle=orthogonalEdgeStyle;rounded=0;orthogonalLoop=1;jettySize=auto;html=1;" edge="1" parent="1" source="o5BiTAXNloYJyOkgfLJO-77" target="o5BiTAXNloYJyOkgfLJO-78">
          <mxGeometry relative="1" as="geometry" />
        </mxCell>
        <mxCell id="o5BiTAXNloYJyOkgfLJO-77" value="&amp;nbsp;cout &amp;lt;&amp;lt; &quot;Подмассив с максимальной суммой:&quot; &amp;lt;&amp;lt; endl;" style="shape=parallelogram;perimeter=parallelogramPerimeter;whiteSpace=wrap;html=1;fixedSize=1;" vertex="1" parent="1">
          <mxGeometry x="240" y="1970" width="240" height="60" as="geometry" />
        </mxCell>
        <mxCell id="o5BiTAXNloYJyOkgfLJO-81" value="" style="edgeStyle=orthogonalEdgeStyle;rounded=0;orthogonalLoop=1;jettySize=auto;html=1;" edge="1" parent="1" source="o5BiTAXNloYJyOkgfLJO-78" target="o5BiTAXNloYJyOkgfLJO-80">
          <mxGeometry relative="1" as="geometry" />
        </mxCell>
        <mxCell id="o5BiTAXNloYJyOkgfLJO-89" style="edgeStyle=orthogonalEdgeStyle;rounded=0;orthogonalLoop=1;jettySize=auto;html=1;" edge="1" parent="1" source="o5BiTAXNloYJyOkgfLJO-78" target="o5BiTAXNloYJyOkgfLJO-90">
          <mxGeometry relative="1" as="geometry">
            <mxPoint x="360" y="2520" as="targetPoint" />
            <Array as="points">
              <mxPoint x="670" y="2100" />
              <mxPoint x="670" y="2450" />
              <mxPoint x="380" y="2450" />
            </Array>
          </mxGeometry>
        </mxCell>
        <mxCell id="o5BiTAXNloYJyOkgfLJO-78" value="for (int i = maxRow; i &amp;lt; maxRow + 3; ++i) {" style="shape=hexagon;perimeter=hexagonPerimeter2;whiteSpace=wrap;html=1;fixedSize=1;" vertex="1" parent="1">
          <mxGeometry x="240" y="2070" width="240" height="60" as="geometry" />
        </mxCell>
        <mxCell id="o5BiTAXNloYJyOkgfLJO-83" value="" style="edgeStyle=orthogonalEdgeStyle;rounded=0;orthogonalLoop=1;jettySize=auto;html=1;" edge="1" parent="1" source="o5BiTAXNloYJyOkgfLJO-80" target="o5BiTAXNloYJyOkgfLJO-82">
          <mxGeometry relative="1" as="geometry" />
        </mxCell>
        <mxCell id="o5BiTAXNloYJyOkgfLJO-86" style="edgeStyle=orthogonalEdgeStyle;rounded=0;orthogonalLoop=1;jettySize=auto;html=1;" edge="1" parent="1" source="o5BiTAXNloYJyOkgfLJO-80" target="o5BiTAXNloYJyOkgfLJO-87">
          <mxGeometry relative="1" as="geometry">
            <mxPoint x="560" y="2200" as="targetPoint" />
          </mxGeometry>
        </mxCell>
        <mxCell id="o5BiTAXNloYJyOkgfLJO-80" value="for (int j = maxCol; j &amp;lt; maxCol + 3; ++j) {" style="shape=hexagon;perimeter=hexagonPerimeter2;whiteSpace=wrap;html=1;fixedSize=1;" vertex="1" parent="1">
          <mxGeometry x="245" y="2170" width="230" height="60" as="geometry" />
        </mxCell>
        <mxCell id="o5BiTAXNloYJyOkgfLJO-84" style="edgeStyle=orthogonalEdgeStyle;rounded=0;orthogonalLoop=1;jettySize=auto;html=1;entryX=0;entryY=0.5;entryDx=0;entryDy=0;" edge="1" parent="1" source="o5BiTAXNloYJyOkgfLJO-82" target="o5BiTAXNloYJyOkgfLJO-80">
          <mxGeometry relative="1" as="geometry">
            <Array as="points">
              <mxPoint x="360" y="2360" />
              <mxPoint x="225" y="2360" />
              <mxPoint x="225" y="2200" />
            </Array>
          </mxGeometry>
        </mxCell>
        <mxCell id="o5BiTAXNloYJyOkgfLJO-82" value="cout &amp;lt;&amp;lt; arr[i][j] &amp;lt;&amp;lt; &quot; &quot;;" style="shape=parallelogram;perimeter=parallelogramPerimeter;whiteSpace=wrap;html=1;fixedSize=1;" vertex="1" parent="1">
          <mxGeometry x="285" y="2260" width="150" height="60" as="geometry" />
        </mxCell>
        <mxCell id="o5BiTAXNloYJyOkgfLJO-88" style="edgeStyle=orthogonalEdgeStyle;rounded=0;orthogonalLoop=1;jettySize=auto;html=1;entryX=0;entryY=0.5;entryDx=0;entryDy=0;" edge="1" parent="1" source="o5BiTAXNloYJyOkgfLJO-87" target="o5BiTAXNloYJyOkgfLJO-78">
          <mxGeometry relative="1" as="geometry">
            <Array as="points">
              <mxPoint x="565" y="2430" />
              <mxPoint x="200" y="2430" />
              <mxPoint x="200" y="2100" />
            </Array>
          </mxGeometry>
        </mxCell>
        <mxCell id="o5BiTAXNloYJyOkgfLJO-87" value="cout &amp;lt;&amp;lt; endl;" style="shape=parallelogram;perimeter=parallelogramPerimeter;whiteSpace=wrap;html=1;fixedSize=1;" vertex="1" parent="1">
          <mxGeometry x="510" y="2240" width="110" height="40" as="geometry" />
        </mxCell>
        <mxCell id="o5BiTAXNloYJyOkgfLJO-92" value="" style="edgeStyle=orthogonalEdgeStyle;rounded=0;orthogonalLoop=1;jettySize=auto;html=1;" edge="1" parent="1" source="o5BiTAXNloYJyOkgfLJO-90" target="o5BiTAXNloYJyOkgfLJO-91">
          <mxGeometry relative="1" as="geometry" />
        </mxCell>
        <mxCell id="o5BiTAXNloYJyOkgfLJO-90" value="cout &amp;lt;&amp;lt; &quot;Максимальная сумма: &quot; &amp;lt;&amp;lt; maxSum &amp;lt;&amp;lt; endl;" style="shape=parallelogram;perimeter=parallelogramPerimeter;whiteSpace=wrap;html=1;fixedSize=1;" vertex="1" parent="1">
          <mxGeometry x="277.5" y="2470" width="210" height="60" as="geometry" />
        </mxCell>
        <mxCell id="o5BiTAXNloYJyOkgfLJO-91" value="return 0;" style="ellipse;whiteSpace=wrap;html=1;" vertex="1" parent="1">
          <mxGeometry x="338.75" y="2560" width="87.5" height="40" as="geometry" />
        </mxCell>
      </root>
    </mxGraphModel>
  </diagram>
</mxfile>
